<svg width="583" height="168" viewBox="0 0 583 168" fill="none" xmlns="http://www.w3.org/2000/svg">
<path fill-rule="evenodd" clip-rule="evenodd" d="M105.167 133.366L89.6465 160.252C85.8009 166.916 77.2788 169.198 70.6143 165.352C63.9498 161.507 61.6686 152.984 65.5141 146.32L81.1244 119.287C86.0861 110.912 93.1987 103.652 102.226 98.4462C111.661 92.9957 121.991 90.4781 132.167 90.5922L132.192 90.5759H162.068C169.751 90.5759 176 96.8249 176 104.508C176 112.191 169.751 118.44 162.068 118.44H131.581C120.386 118.448 110.577 124.436 105.167 133.366Z" fill="#04748e"/>
<path fill-rule="evenodd" clip-rule="evenodd" d="M131.841 167.047C141.382 167.047 149.114 159.315 149.114 149.774C149.114 140.234 141.382 132.502 131.841 132.502C122.301 132.502 114.569 140.234 114.569 149.774C114.569 159.315 122.301 167.047 131.841 167.047Z" fill="#04748e"/>
<path fill-rule="evenodd" clip-rule="evenodd" d="M44.8281 68.6922L29.3075 41.806C25.4619 35.1415 27.7432 26.6194 34.4077 22.7739C41.0722 18.9283 49.5943 21.2096 53.4398 27.8741L69.0501 54.9069C73.8244 63.3964 76.5538 73.1814 76.5538 83.6018C76.5538 94.4948 73.5719 104.703 68.382 113.454V113.486L53.448 139.354C49.6024 146.01 41.064 148.292 34.4158 144.454C27.7595 140.609 25.4701 132.07 29.3156 125.422L44.5592 99.0247C50.132 89.3375 49.855 77.8498 44.8281 68.6922Z" fill="#04748e"/>
<path fill-rule="evenodd" clip-rule="evenodd" d="M2.31539 74.9576C-2.45079 83.219 0.376328 93.7861 8.63771 98.5523C16.8991 103.327 27.4662 100.491 32.2324 92.2299C36.9985 83.9686 34.1714 73.4015 25.91 68.6353C17.6568 63.8691 7.08972 66.6962 2.31539 74.9576Z" fill="#04748e"/>
<path fill-rule="evenodd" clip-rule="evenodd" d="M105.167 33.8624L89.6465 6.97621C85.7928 0.30355 77.2707 -1.9777 70.6062 1.86783C63.9417 5.71337 61.6604 14.2355 65.506 20.9L81.1162 47.9328C86.0779 56.3082 93.1906 63.5675 102.218 68.7737C111.652 74.2242 121.983 76.7417 132.159 76.6277L132.184 76.644H162.06C169.743 76.644 175.992 70.395 175.992 62.712C175.992 55.0291 169.743 48.7801 162.06 48.7801H131.573C120.386 48.772 110.577 42.7918 105.167 33.8624Z" fill="#04748e"/>
<path fill-rule="evenodd" clip-rule="evenodd" d="M146.808 8.81757C142.034 0.556182 131.475 -2.27909 123.213 2.49524C114.952 7.26958 112.117 17.8285 116.891 26.0899C121.665 34.3513 132.224 37.1865 140.486 32.4122C148.747 27.646 151.574 17.079 146.808 8.81757Z" fill="#04748e"/>
<path d="M197.224 83.944C197.224 75.0693 199.144 67.176 202.984 60.264C206.824 53.2667 212.157 47.848 218.984 44.008C225.896 40.0827 233.704 38.12 242.408 38.12C253.075 38.12 262.205 40.936 269.8 46.568C277.395 52.2 282.472 59.88 285.032 69.608H260.968C259.176 65.8533 256.616 62.9947 253.288 61.032C250.045 59.0693 246.333 58.088 242.152 58.088C235.411 58.088 229.949 60.4347 225.768 65.128C221.587 69.8213 219.496 76.0933 219.496 83.944C219.496 91.7947 221.587 98.0667 225.768 102.76C229.949 107.453 235.411 109.8 242.152 109.8C246.333 109.8 250.045 108.819 253.288 106.856C256.616 104.893 259.176 102.035 260.968 98.28H285.032C282.472 108.008 277.395 115.688 269.8 121.32C262.205 126.867 253.075 129.64 242.408 129.64C233.704 129.64 225.896 127.72 218.984 123.88C212.157 119.955 206.824 114.536 202.984 107.624C199.144 100.712 197.224 92.8187 197.224 83.944Z" fill="#04748e"/>
<path d="M378.82 39.144V129H356.932V92.008H322.884V129H300.996V39.144H322.884V74.344H356.932V39.144H378.82Z" fill="#04748e"/>
<path d="M498.941 39.144V129H477.053V75.112L456.957 129H439.293L419.069 74.984V129H397.181V39.144H423.037L448.253 101.352L473.213 39.144H498.941Z" fill="#04748e"/>
<path d="M549.753 129.896C543.182 129.896 537.294 128.829 532.089 126.696C526.884 124.563 522.702 121.405 519.545 117.224C516.473 113.043 514.852 108.008 514.681 102.12H537.977C538.318 105.448 539.47 108.008 541.433 109.8C543.396 111.507 545.956 112.36 549.113 112.36C552.356 112.36 554.916 111.635 556.793 110.184C558.67 108.648 559.609 106.557 559.609 103.912C559.609 101.693 558.841 99.8587 557.305 98.408C555.854 96.9573 554.02 95.7627 551.801 94.824C549.668 93.8853 546.596 92.8187 542.585 91.624C536.782 89.832 532.046 88.04 528.377 86.248C524.708 84.456 521.55 81.8107 518.905 78.312C516.26 74.8133 514.937 70.248 514.937 64.616C514.937 56.2533 517.966 49.7253 524.025 45.032C530.084 40.2533 537.977 37.864 547.705 37.864C557.604 37.864 565.582 40.2533 571.641 45.032C577.7 49.7253 580.942 56.296 581.369 64.744H557.689C557.518 61.8427 556.452 59.5813 554.489 57.96C552.526 56.2533 550.009 55.4 546.937 55.4C544.292 55.4 542.158 56.1253 540.537 57.576C538.916 58.9413 538.105 60.9467 538.105 63.592C538.105 66.4933 539.47 68.7547 542.201 70.376C544.932 71.9973 549.198 73.7467 555.001 75.624C560.804 77.5867 565.497 79.464 569.081 81.256C572.75 83.048 575.908 85.6507 578.553 89.064C581.198 92.4773 582.521 96.872 582.521 102.248C582.521 107.368 581.198 112.019 578.553 116.2C575.993 120.381 572.238 123.709 567.289 126.184C562.34 128.659 556.494 129.896 549.753 129.896Z" fill="#04748e"/>
</svg>
